<svg xmlns="http://www.w3.org/2000/svg" xmlns:xlink="http://www.w3.org/1999/xlink" viewBox="0 0 64 64">
    <title>smiling face with heart-eyes</title>
    <defs>
        <path id="head" d="M58.2 50.8c.8-.9 1.4-1.6 1.7-2.2 1.6-2.6 2.1-5.3 2.1-5.3l-2 .4s2.3-2.5 1.7-7.8l-2 2.1s1.9-5.4.3-10.4l-2.2 1.6s.7-2 .1-3.4l-.9.7s1.7-4.7.2-6.6c-.9 2.8-1.9 2.8-1.9 2.8s1.2-2.1.3-3c-1 1.6-1.8.6-1.8.1.1-.6-.2-1.5 2.7-2-2.3-1.4-5.1-.4-5.1-.4s.1-1.5 2.1-1.4c-1.9-1.6-4.5-.6-4.5-.6-4.1-3.1-9.6-4.9-17.1-4.9-7.4 0-12.9 1.8-17.1 4.9 0 0-2.6-.9-4.5.6 2-.1 2.1 1.4 2.1 1.4s-2.7-1-5.1.4c2.9.4 2.7 1.3 2.7 2 0 .5-.8 1.5-1.8-.1-1 .9.3 3 .3 3s-1 0-1.9-2.8c-1.5 2 .2 6.6.2 6.6l-.9-.7c-.6 1.4.1 3.4.1 3.4l-2-1.6c-1.7 5 .3 10.4.3 10.4l-1.9-2.1C1.7 41.2 4 43.7 4 43.7l-2-.4s.5 2.7 2.1 5.3c.2.5.8 1.3 1.7 2.2l.1.1C10 55 20.1 62 32 62c11.9 0 22-7 26.1-11.1 0-.1.1-.1.1-.1"/>
        <g id="ear">
            <path id="outerEar" fill="#A00500" stroke-width="1" stroke="white" d="M3.1 2C1.3 15.4 1.6 26.2 4.3 33.1l24.8-18.5C24.2 9.6 14.2 3.5 3.1 2z"/>
            <path id="innerEar" fill="#ff3b34" d="M6.3 32.2l10.3-13.3S14.7 11.6 5 6.5C2 18.1 6.3 32.2 6.3 32.2"/>
        </g>
        <g id="base">
            <use xlink:href="#head" stroke="white" stroke-width="1.5"/>
            <use xlink:href="#ear"/>
            <use xlink:href="#ear" x="-64" transform="scale(-1,1)"/>
            <use xlink:href="#head" fill="#CE221C"/>
        </g>
        <path id="nose" fill="#1F1F1F" d="M36 38c-.8-.9-3.3-1-4-1-.7 0-3.2.1-4 1-.6.7-.1 2.3 1.4 3.8 1 .9 1.9 1.2 2.6 1.2.7 0 1.7-.3 2.6-1.2 1.6-1.4 2-3.1 1.4-3.8"/>
        <g id="openSmile">
            <path id="mouthInside" fill="#E95994" stroke="black" stroke-width=".2" d="M45 46.7c0-.6-.4-1.4-1.4-1.6C41 44.5 37 44 32 44s-9 .5-11.6 1c-1 .2-1.4 1-1.4 1.6C19 52.3 23.3 58 32 58s13-5.7 13-11.3"/>
            <path id="tongue" fill="#ED7CAB" d="M25.5 54.6c1.9.9 4 1.4 6.5 1.4s4.6-.5 6.5-1.4c-1.8-1-4-1.6-6.5-1.6s-4.7.6-6.5 1.6"/>
        </g>
        <path id="heartEye" d="M60.9 26c-.4-2.1-1.8-3.9-4-4.4-2.4-.6-4.6.3-6.7 2.2-1.2-2.9-3-5.1-5.8-6.2-2.9-1.1-5.8-.4-7.6 1.6-1.9 2.1-2.6 5.3-.6 9.6 1.9 4 10.2 12 10.5 12.2.3-.2 9.6-5.4 11.9-7.9 2.2-2.5 2.7-5 2.3-7.1"/>
        <g id="heartEyes" fill="#f46767" stroke="#730E0A" stroke-width=".5">
            <use xlink:href="#heartEye"/>
            <use xlink:href="#heartEye" x="-64" transform="scale(-1,1)"/>
        </g>
    </defs>
    <use xlink:href="#base"/>
    <use xlink:href="#nose"/>
    <use xlink:href="#openSmile"/>
    <use xlink:href="#heartEyes"/>
</svg>
