<svg xmlns="http://www.w3.org/2000/svg" xmlns:xlink="http://www.w3.org/1999/xlink" viewBox="0 0 64 64">
    <title>grimacing face</title>
    <defs>
        <radialGradient id="eyeColor">
            <stop offset="0%" stop-color="#8266FF"/>
            <stop offset="100%" stop-color="#522BFF"/>
        </radialGradient>
        <path id="head" d="M58.2 50.8c.8-.9 1.4-1.6 1.7-2.2 1.6-2.6 2.1-5.3 2.1-5.3l-2 .4s2.3-2.5 1.7-7.8l-2 2.1s1.9-5.4.3-10.4l-2.2 1.6s.7-2 .1-3.4l-.9.7s1.7-4.7.2-6.6c-.9 2.8-1.9 2.8-1.9 2.8s1.2-2.1.3-3c-1 1.6-1.8.6-1.8.1.1-.6-.2-1.5 2.7-2-2.3-1.4-5.1-.4-5.1-.4s.1-1.5 2.1-1.4c-1.9-1.6-4.5-.6-4.5-.6-4.1-3.1-9.6-4.9-17.1-4.9-7.4 0-12.9 1.8-17.1 4.9 0 0-2.6-.9-4.5.6 2-.1 2.1 1.4 2.1 1.4s-2.7-1-5.1.4c2.9.4 2.7 1.3 2.7 2 0 .5-.8 1.5-1.8-.1-1 .9.3 3 .3 3s-1 0-1.9-2.8c-1.5 2 .2 6.6.2 6.6l-.9-.7c-.6 1.4.1 3.4.1 3.4l-2-1.6c-1.7 5 .3 10.4.3 10.4l-1.9-2.1C1.7 41.2 4 43.7 4 43.7l-2-.4s.5 2.7 2.1 5.3c.2.5.8 1.3 1.7 2.2l.1.1C10 55 20.1 62 32 62c11.9 0 22-7 26.1-11.1 0-.1.1-.1.1-.1"/>
        <g id="ear">
            <path id="outerEar" fill="#A00500" stroke-width="1" stroke="white" d="M3.1 2C1.3 15.4 1.6 26.2 4.3 33.1l24.8-18.5C24.2 9.6 14.2 3.5 3.1 2z"/>
            <path id="innerEar" fill="#ff3b34" d="M6.3 32.2l10.3-13.3S14.7 11.6 5 6.5C2 18.1 6.3 32.2 6.3 32.2"/>
        </g>
        <g id="eye">
            <path id="cornea" fill="#F3F3F3" stroke="#730e0a" stroke-width=".5" d="M39.7 30.8s.5-3.6 4.5-5c4.5-1.7 7.6 1.4 8.5 3.7 1.2 3.4-.3 7.1-.8 8-.3.6-3.7 3.2-11.2.7 0 0-1.9-3.8-1-7.4"/>
            <ellipse id="iris" fill="url('#eyeColor')" cx="44" cy="32.5" rx="4" ry="4.5"/>
            <ellipse id="pupil" fill="#1F1F1F" cx="44" cy="32.5" rx="2" ry="3"/>
        </g>
        <g id="ears">
            <use xlink:href="#ear"/>
            <use xlink:href="#ear" x="-64" transform="scale(-1,1)"/>
        </g>
        <g id="eyes">
            <use xlink:href="#eye"/>
            <use xlink:href="#eye" x="-64" transform="scale(-1,1)"/>
        </g>
        <g id="base">
            <use xlink:href="#head" stroke="white" stroke-width="1.5"/>
            <use xlink:href="#ears"/>
            <use xlink:href="#head" fill="#CE221C"/>
        </g>
        <path id="nose" fill="#1F1F1F" d="M36 38c-.8-.9-3.3-1-4-1-.7 0-3.2.1-4 1-.6.7-.1 2.3 1.4 3.8 1 .9 1.9 1.2 2.6 1.2.7 0 1.7-.3 2.6-1.2 1.6-1.4 2-3.1 1.4-3.8"/>
    </defs>
    <use xlink:href="#base"/>
    <use xlink:href="#eyes"/>
    <g id="mouth" transform="scale(.9) translate(4,5)">
        <path fill="#691f1f" transform="translate(0,6)"  d="M52.5 40c-2.2-3.6-7.7-6-20.5-6s-18.3 2.4-20.5 6c-1.2 1.9.5 5 .5 5 2.1 3.9 1.8 5 20 5 18.1 0 17.9-1.1 20-5 0 0 1.7-3.1.5-5"/>
        <path fill="white" transform="translate(0,6)" d="M48 40c.1-.5-.2-1.2-.6-1.5 0 0-3.9-2.5-15.4-2.5s-15.4 2.5-15.4 2.5c-.4.3-.7.9-.6 1.5l.2 1c.1.5.6 1 1.1 1h29.3c.5 0 1-.4 1.1-1l.3-1M32 48c6.3 0 15.2 0 15-2.1 0-.4-.1-.8-.3-1.3-.2-.5-.3-.7-1.4-.7H18.6c-1.1 0-1.2.1-1.4.7-.1.5-.2.9-.3 1.3C16.8 48 25.7 48 32 48"/>
    </g>
    <use xlink:href="#nose"/>
</svg>
