<svg xmlns="http://www.w3.org/2000/svg" viewBox="0 0 64 64">
    <title>crying cat</title>
    <defs>
        <radialGradient id="eyeColor">
            <stop offset="0%" stop-color="#8266FF"/>
            <stop offset="100%" stop-color="#522BFF"/>
        </radialGradient>
        <radialGradient id="tearColor">
            <stop offset="0%" stop-color="#65b1ef"/>
            <stop offset="100%" stop-opacity="0.911" stop-color="#65b1ef"/>
        </radialGradient>
    </defs>
    <path id="outline" stroke-width="1.5" stroke="white" d="M58.2 50.8c.8-.9 1.4-1.6 1.7-2.2 1.6-2.6 2.1-5.3 2.1-5.3l-2 .4s2.3-2.5 1.7-7.8l-2 2.1s1.9-5.4.3-10.4l-2.2 1.6s.7-2 .1-3.4l-.9.7s1.7-4.7.2-6.6c-.9 2.8-1.9 2.8-1.9 2.8s1.2-2.1.3-3c-1 1.6-1.8.6-1.8.1.1-.6-.2-1.5 2.7-2-2.3-1.4-5.1-.4-5.1-.4s.1-1.5 2.1-1.4c-1.9-1.6-4.5-.6-4.5-.6-4.1-3.1-9.6-4.9-17.1-4.9-7.4 0-12.9 1.8-17.1 4.9 0 0-2.6-.9-4.5.6 2-.1 2.1 1.4 2.1 1.4s-2.7-1-5.1.4c2.9.4 2.7 1.3 2.7 2 0 .5-.8 1.5-1.8-.1-1 .9.3 3 .3 3s-1 0-1.9-2.8c-1.5 2 .2 6.6.2 6.6l-.9-.7c-.6 1.4.1 3.4.1 3.4l-2-1.6c-1.7 5 .3 10.4.3 10.4l-1.9-2.1C1.7 41.2 4 43.7 4 43.7l-2-.4s.5 2.7 2.1 5.3c.2.5.8 1.3 1.7 2.2l.1.1C10 55 20.1 62 32 62c11.9 0 22-7 26.1-11.1 0-.1.1-.1.1-.1"/>
    <g id="ears">
        <g fill="#A00500" stroke-width="1" stroke="white">
            <path id="leftOuterEar" d="M3.1 2C1.3 15.4 1.6 26.2 4.3 33.1l24.8-18.5C24.2 9.6 14.2 3.5 3.1 2z"/>
            <path id="rightOuterEar" d="M60.9 2c1.8 13.4 1.5 24.2-1.2 31.1L34.9 14.7C39.8 9.6 49.8 3.5 60.9 2z"/>
        </g>
        <g fill="#ff3b34">
            <path id="leftInnerEar" d="M57.7 32.2L47.5 18.9s1.9-7.3 11.6-12.4c2.9 11.6-1.4 25.7-1.4 25.7"/>
            <path id="rightInnerEar" d="M6.3 32.2l10.3-13.3S14.7 11.6 5 6.5C2 18.1 6.3 32.2 6.3 32.2"/>
        </g>
    </g>
    <path id="head" fill="#CE221C" d="M58.2 50.8c.8-.9 1.4-1.6 1.7-2.2 1.6-2.6 2.1-5.3 2.1-5.3l-2 .4s2.3-2.5 1.7-7.8l-2 2.1s1.9-5.4.3-10.4l-2.2 1.6s.7-2 .1-3.4l-.9.7s1.7-4.7.2-6.6c-.9 2.8-1.9 2.8-1.9 2.8s1.2-2.1.3-3c-1 1.6-1.8.6-1.8.1.1-.6-.2-1.5 2.7-2-2.3-1.4-5.1-.4-5.1-.4s.1-1.5 2.1-1.4c-1.9-1.6-4.5-.6-4.5-.6-4.1-3.1-9.6-4.9-17.1-4.9-7.4 0-12.9 1.8-17.1 4.9 0 0-2.6-.9-4.5.6 2-.1 2.1 1.4 2.1 1.4s-2.7-1-5.1.4c2.9.4 2.7 1.3 2.7 2 0 .5-.8 1.5-1.8-.1-1 .9.3 3 .3 3s-1 0-1.9-2.8c-1.5 2 .2 6.6.2 6.6l-.9-.7c-.6 1.4.1 3.4.1 3.4l-2-1.6c-1.7 5 .3 10.4.3 10.4l-1.9-2.1C1.7 41.2 4 43.7 4 43.7l-2-.4s.5 2.7 2.1 5.3c.2.5.8 1.3 1.7 2.2l.1.1C10 55 20.1 62 32 62c11.9 0 22-7 26.1-11.1 0-.1.1-.1.1-.1"/>
    <path id="nose" fill="#1F1F1F" d="M36 38c-.8-.9-3.3-1-4-1-.7 0-3.2.1-4 1-.6.7-.1 2.3 1.4 3.8 1 .9 1.9 1.2 2.6 1.2.7 0 1.7-.3 2.6-1.2 1.6-1.4 2-3.1 1.4-3.8"/>
    <g id="eyes">
        <g id="corneas" fill="#F3F3F3" stroke="#730e0a" stroke-width=".5">
            <path id="rightCornea" d="M24.3 30.8s-.5-3.6-4.5-5c-4.5-1.7-7.6 1.4-8.5 3.7-1.2 3.4.3 7.1.8 8 .3.6 3.7 3.2 11.2.7 0 0 1.9-3.8 1-7.4"/>
            <path id="leftCornea" d="M39.7 30.8s.5-3.6 4.5-5c4.5-1.7 7.6 1.4 8.5 3.7 1.2 3.4-.3 7.1-.8 8-.3.6-3.7 3.2-11.2.7 0 0-1.9-3.8-1-7.4"/>
        </g>
        <g id="irises" fill="url('#eyeColor')">
            <ellipse id="leftIris" cx="44" cy="32.5" rx="4" ry="4.5"/>
            <ellipse id="rightIris" cx="20" cy="32.5" rx="4" ry="4.5"/>
        </g>
        <g id="pupils" fill="#1F1F1F">
            <ellipse id="leftPupil" cx="44" cy="32.5" rx="2" ry="3"/>
            <ellipse id="rightPupil" cx="20" cy="32.5" rx="2" ry="3"/>
        </g>
        <g id="eyeShines" fill="white">
            <ellipse id="leftShineBig" cx="21" cy="36" rx="1.75" ry="1.75"/>
            <ellipse id="leftShineSmall" cx="17" cy="31.7" rx="1" ry="1"/>
            <ellipse id="rightShineBig" cx="45" cy="36" rx="1.75" ry="1.75"/>
            <ellipse id="rightShineSmall" cx="41" cy="31.7" rx="1" ry="1"/>
        </g>
    </g>
    <path id="mouth" fill="#730e0a" stroke="black" stroke-width=".1" d="M23 54.2c5.8-4.8 12.2-4.8 18 0 .7.6 1.3-.4.8-1.3-1.8-3.4-5.3-6.5-9.8-6.5-4.5 0-8.1 3.1-9.8 6.5-.5.9.1 1.9.8 1.3"/>
    <path id="tear" fill="url(#tearColor)" stroke="#65b1ef" stroke-width=".2" transform="scale(.9) translate(2,3)" d="M47 37c-4.8 6.5-7.5 12.5-7.5 17.4 0 4.2 3.4 7.6 7.5 7.6s7.5-3.4 7.5-7.6c0-4.9-2.8-11-7.5-17.4"/>
</svg>
